<svg xmlns="http://www.w3.org/2000/svg" viewBox="4 4 16 16">
  <path d="M 6 8 c 1.1 0 2 -0.9 2 -2 s -0.9 -2 -2 -2 s -2 0.9 -2 2 s 0.9 2 2 2 z M 12 20 c 1.1 0 2 -0.9 2 -2 s -0.9 -2 -2 -2 s -2 0.9 -2 2 s 0.9 2 2 2 z M 6 20 c 1.1 0 2 -0.9 2 -2 s -0.9 -2 -2 -2 s -2 0.9 -2 2 s 0.9 2 2 2 z M 6 14 c 1.1 0 2 -0.9 2 -2 s -0.9 -2 -2 -2 s -2 0.9 -2 2 s 0.9 2 2 2 z M 12 14 c 1.1 0 2 -0.9 2 -2 s -0.9 -2 -2 -2 s -2 0.9 -2 2 s 0.9 2 2 2 z M 16 6 c 0 1.1 0.9 2 2 2 s 2 -0.9 2 -2 s -0.9 -2 -2 -2 s -2 0.9 -2 2 z M 12 8 c 1.1 0 2 -0.9 2 -2 s -0.9 -2 -2 -2 s -2 0.9 -2 2 s 0.9 2 2 2 z M 18 14 c 1.1 0 2 -0.9 2 -2 s -0.9 -2 -2 -2 s -2 0.9 -2 2 s 0.9 2 2 2 z M 18 20 c 1.1 0 2 -0.9 2 -2 s -0.9 -2 -2 -2 s -2 0.9 -2 2 s 0.9 2 2 2 z" fill="#000000"/>
</svg>